<?xml version="1.0" encoding="iso-8859-1"?>
<!-- Generator: Adobe Illustrator 22.0.1, SVG Export Plug-In . SVG Version: 6.00 Build 0)  -->
<svg version="1.1" id="Corporation" xmlns="http://www.w3.org/2000/svg" xmlns:xlink="http://www.w3.org/1999/xlink" x="0px"
	 y="0px" viewBox="0 0 495.171 241.201" style="enable-background:new 0 0 495.171 241.201;" xml:space="preserve">
<g>
	<rect style="fill:none;" width="495.171" height="241.201"/>
	<g>
		<g>
			<g>
				<path style="fill:#FF6600;" d="M463.164,161.314c0-6.123-4.346-10.615-10.342-10.615c-5.986,0-10.342,4.492-10.342,10.615
					s4.356,10.61,10.342,10.61C458.818,171.924,463.164,167.437,463.164,161.314L463.164,161.314L463.164,161.314z M450.107,161.856
					v6.943h-2.246v-15.313h5.576c3.262,0,4.766,1.431,4.766,4.219c0,1.704-1.162,3.067-2.656,3.262v0.074
					c1.289,0.205,1.767,1.362,2.041,3.471c0.205,1.357,0.479,3.741,0.957,4.287h-2.656c-0.615-1.43-0.547-3.471-1.025-5.171
					c-0.401-1.294-1.084-1.772-2.578-1.772H450.107L450.107,161.856z M452.891,159.883c2.177,0,2.792-1.157,2.792-2.178
					c0-1.22-0.615-2.173-2.792-2.173h-2.784v4.35H452.891L452.891,159.883z M440.029,161.314c0-7.554,5.996-12.656,12.793-12.656
					c6.807,0,12.793,5.102,12.793,12.656c0,7.553-5.986,12.656-12.793,12.656C446.025,173.97,440.029,168.867,440.029,161.314
					L440.029,161.314z"/>
			</g>
			<g>
				<g>
					<g>
						<polygon style="fill:#FF6600;" points="395.703,173.97 380.952,157.427 366.338,173.97 335.591,173.97 365.65,140.195 
							335.591,106.416 367.305,106.416 382.193,122.822 396.529,106.416 427.139,106.416 397.222,140.056 427.549,173.97 						"/>
						<polygon style="fill:#FF6600;" points="276.523,173.97 276.523,67.554 335.591,67.554 335.591,91.274 301.543,91.274 
							301.543,106.416 335.591,106.416 335.591,129.238 301.543,129.238 301.543,150.186 335.591,150.186 335.591,173.97 						"/>
					</g>
					<path style="fill:#FFFFFF;" d="M251.606,67.554v43.55h-0.273c-5.518-6.34-12.41-8.545-20.405-8.545
						c-16.382,0-28.721,11.137-33.052,25.859c-4.942-16.221-17.681-26.162-36.57-26.162c-15.342,0-27.454,6.885-33.777,18.105
						v-13.945H95.82V91.274h34.605v-23.72H67.554V173.97H95.82v-44.732h28.174c-0.84,3.286-1.29,6.804-1.29,10.518
						c0,22.197,16.958,37.773,38.602,37.773c18.198,0,30.192-8.545,36.535-24.121h-24.223c-3.277,4.683-5.762,6.07-12.312,6.07
						c-7.595,0-14.145-6.626-14.145-14.482h49.323c2.139,17.632,15.874,32.837,34.722,32.837c8.13,0,15.576-3.999,20.127-10.752
						h0.273v6.89h24.917V67.554H251.606z M147.947,129.556c1.572-6.758,6.814-11.177,13.36-11.177
						c7.205,0,12.18,4.282,13.488,11.177C175.347,129.556,147.947,129.556,147.947,129.556z M236.484,157.769
						c-9.185,0-14.893-8.56-14.893-17.495c0-9.551,4.966-18.735,14.893-18.735c10.296,0,14.395,9.184,14.395,18.735
						C250.879,149.331,246.533,157.769,236.484,157.769z"/>
				</g>
			</g>
		</g>
	</g>
</g>
</svg>
